<?xml version="1.0" encoding="UTF-8" standalone="no"?>
<!-- Created with Inkscape (http://www.inkscape.org/) -->

<svg
   version="1.1"
   id="svg69"
   width="256"
   height="256"
   viewBox="0 0 256 256"
   sodipodi:docname="ANPV.png.svg"
   inkscape:version="1.1.1 (3bf5ae0d25, 2021-09-20)"
   xmlns:inkscape="http://www.inkscape.org/namespaces/inkscape"
   xmlns:sodipodi="http://sodipodi.sourceforge.net/DTD/sodipodi-0.dtd"
   xmlns="http://www.w3.org/2000/svg"
   xmlns:svg="http://www.w3.org/2000/svg">
  <defs
     id="defs73" />
  <sodipodi:namedview
     id="namedview71"
     pagecolor="#ffffff"
     bordercolor="#666666"
     borderopacity="1.0"
     inkscape:pageshadow="2"
     inkscape:pageopacity="0.0"
     inkscape:pagecheckerboard="0"
     showgrid="false"
     inkscape:zoom="2.2695313"
     inkscape:cx="230.66437"
     inkscape:cy="132.62651"
     inkscape:window-width="2560"
     inkscape:window-height="1353"
     inkscape:window-x="0"
     inkscape:window-y="0"
     inkscape:window-maximized="1"
     inkscape:current-layer="g75" />
  <g
     inkscape:groupmode="layer"
     inkscape:label="Image"
     id="g75">
    <path
       d="M 5.0612218,93.113223 V 3.7936629 H 128.57245 252.08368 V 93.113223 182.43277 H 128.57245 5.0612218 Z"
       id="path2816"
       style="fill:#00a1e7;fill-opacity:1;stroke-width:0.402028" />
    <path
       d="m 5.0612218,218.95917 v -36.5264 H 128.57244 252.08368 v 36.5264 36.5264 H 128.57244 5.0612218 Z"
       id="path2816-3"
       style="fill:#21b04b;fill-opacity:1;stroke-width:0.25709" />
    <g
       id="g2300"
       transform="matrix(1.0233166,0,0,1.0355259,-1.9895255,-4.006456)">
      <path
         style="fill:#ecedec"
         d="M 0,128 V 0 H 128 256 V 128 256 H 128 0 Z m 253.21937,35.25 c 0.15434,-49.3625 0.15683,-105.6125 0.006,-125 L 252.9498,3 H 127.4749 2 v 125 125 h 125.46937 125.46936 z"
         id="path2316" />
      <path
         style="fill:#fdee01"
         d="m 214.52958,119.75 c -0.32614,-2.3375 -1.20982,-8.75 -1.96375,-14.25 -0.75392,-5.5 -1.89596,-11.8 -2.53787,-14 -0.64191,-2.2 -1.42787,-5.125 -1.74656,-6.5 -1.44272,-6.224452 -6.01553,-5.441617 -10.22237,1.75 -6.09986,10.427756 -9.7636,15.6867 -14.44068,20.7282 -2.54009,2.73802 -4.61835,5.44227 -4.61835,6.00946 0,1.80527 -3.93081,3.56781 -6.51208,2.91995 -4.09604,-1.02804 -2.62432,-6.22935 4.37495,-15.46182 2.27069,-2.995186 4.13046,-6.221734 4.13283,-7.17011 0.002,-0.948376 1.3429,-2.416537 2.97897,-3.26258 3.86198,-1.997109 5.65726,-7.552136 2.88007,-8.911626 -2.24741,-1.100154 -15.69901,2.62304 -20.83717,5.767407 C 156.88003,92.960719 149,94.482359 149,90.654988 149,88.053439 151.81117,85 154.2063,85 c 0.85184,0 2.10901,-0.675 2.7937,-1.5 0.68469,-0.825 1.75229,-1.5057 2.37244,-1.512667 0.62016,-0.007 3.60256,-1.267564 6.62756,-2.801325 3.025,-1.533762 7.6375,-3.386544 10.25,-4.117294 14.77216,-4.131963 6.24426,-8.378238 -15.25,-7.593393 -20,0.730284 -20,0.730284 -20,-2.220115 0,-2.950398 0,-2.950398 11.75,-3.610942 29.44815,-1.655474 36.88129,-6.719709 25.80049,-17.578003 C 165.87875,31.648978 161.61795,24 167.37275,24 c 3.9059,0 6.10277,2.22283 16.63528,16.831834 2.31359,3.209039 3.55968,4.149641 4.80752,3.628917 0.92645,-0.386603 3.88606,-0.936842 6.57693,-1.222753 4.89247,-0.519837 4.89247,-0.519837 4.29183,-10.378917 C 199.31652,26.822086 199.45512,23 200.04183,23 200.56883,23 201,21.843702 201,20.430449 c 0,-2.092735 0.41752,-2.510254 2.25,-2.25 2.21715,0.314885 2.24456,0.498409 1.87747,12.569551 C 204.75495,43 204.75495,43 208.44125,43 c 3.87133,0 3.83897,0.0224 15.05251,-10.418973 C 230.4585,26.095893 237,24.543111 237,29.375 237,34.512546 235.76861,38 233.95459,38 230.22076,38 220,50.990464 220,55.736118 220,59.439918 220.28401,60 222.16214,60 c 1.18918,0 4.00168,1.077663 6.25,2.394807 2.24832,1.317143 6.11286,2.91853 8.58786,3.558637 2.475,0.640108 5.85,1.752217 7.5,2.471355 1.65,0.719138 4.4625,1.927602 6.25,2.685474 C 254.68578,72.778984 255.60912,78 251.96845,78 c -2.93447,0 -13.18315,-3.600342 -21.54772,-7.56967 -8.96743,-4.255418 -8.42668,-4.289644 -12.90265,0.816649 -3.82964,4.368937 -4.94956,14.608672 -1.81364,16.582485 0.58593,0.368795 1.31568,2.695536 1.62168,5.170536 0.83061,6.718228 2.29095,14.27052 3.14591,16.26937 1.73268,4.05088 -0.43534,14.73063 -2.99035,14.73063 -2.01577,0 -2.44544,-0.61857 -2.9521,-4.25 z M 121,81.424044 C 121,78.809899 129.90497,68 132.05845,68 c 3.31013,0 2.1587,3.191492 -3.33971,9.256856 C 123.48826,83.026661 121,84.370022 121,81.424044 Z M 81.921222,77.549618 C 76.922774,73.594205 76.167623,72.13582 76.070285,66.25 76.022358,63.351913 76.421697,62 77.325686,62 c 1.469835,0 5.661614,4.094576 5.69655,5.564451 C 83.034466,68.079003 83.924459,69.625 85,71 c 1.075541,1.375 1.965534,3.2875 1.977764,4.25 C 86.989994,76.2125 87.45,77 88,77 c 0.55,0 1,0.9 1,2 0,2.902611 -2.129207,2.466355 -7.078778,-1.450382 z"
         id="path2314" />
      <path
         style="fill:#00a1e7"
         d="m 241.77327,192.25 c -0.84519,-0.9625 -1.84526,-2.7625 -2.22238,-4 -0.37711,-1.2375 -1.08428,-2.25 -1.57148,-2.25 -0.4872,0 -1.78157,-2.025 -2.87639,-4.5 -1.09481,-2.475 -2.642,-4.5 -3.43821,-4.5 -0.79621,0 -2.12489,-1.6875 -2.95262,-3.75 -4.25901,-10.61233 -25.66306,-13.06861 -41.32302,-4.74213 C 174.96762,175.11248 169,173.05743 169,162.17527 169,148.27364 158.09505,140 139.7722,140 c -5.92951,0 -9.83335,-0.49738 -11.77189,-1.49984 -1.5952,-0.82491 -5.18155,-1.98906 -7.96965,-2.58701 -4.1785,-0.89612 -5.35003,-1.64297 -6.66695,-4.25016 -0.87871,-1.73964 -2.55752,-4.23722 -3.73068,-5.55017 -1.17317,-1.31294 -1.68303,-2.55747 -1.13303,-2.76561 7.19688,-2.72352 11.28044,-8.85617 14.3216,-21.508 1.98348,-8.25166 2.65271,-9.741439 4.59503,-10.228929 1.25038,-0.313826 3.01762,-1.592022 3.92719,-2.840437 0.90958,-1.248414 3.45432,-4.713617 5.65498,-7.70045 C 140.02077,76.967846 141,74.70405 141,71.819394 141,68 141,68 149.84444,68 c 4.86444,0 13.63944,-0.293385 19.5,-0.651967 12.5179,-0.765915 16.5904,5.067301 5.65556,8.100708 -2.3502,0.651963 -13.41405,5.536405 -17.23643,7.609495 C 156.80853,83.576206 155.19078,84 154.16856,84 151.57322,84 149,87.150832 149,90.328741 c 0,3.178433 3.80436,3.697133 8.63569,1.17742 1.57537,-0.821612 3.84228,-1.496612 5.03758,-1.5 1.19531,-0.0034 3.44531,-1.072904 5,-2.376701 1.5547,-1.303798 4.31954,-2.69621 6.14409,-3.09425 1.82455,-0.398041 4.52455,-1.353525 6,-2.123299 8.10854,-4.230395 11.83756,1.562966 4.57273,7.104127 C 182.52554,90.938198 181,92.837378 181,93.73644 c 0,0.899062 -0.96259,2.659292 -2.1391,3.911622 -7.0196,7.472028 -10.50213,17.723198 -6.37298,18.759548 2.58127,0.64786 6.51208,-1.11468 6.51208,-2.91995 0,-0.56719 2.07826,-3.27144 4.61835,-6.00946 4.67708,-5.0415 8.34082,-10.300444 14.44068,-20.7282 6.8182,-11.655751 11.12566,-6.09101 14.51369,18.75 0.75014,5.5 1.63072,11.9125 1.95686,14.25 0.50666,3.63143 0.93633,4.25 2.9521,4.25 2.55501,0 4.72303,-10.67975 2.99035,-14.73063 -0.79599,-1.86098 -2.03508,-8.22504 -3.31426,-17.022398 -0.42011,-2.889165 -1.30246,-5.791665 -1.9608,-6.45 C 210.97993,81.579927 216.72502,68 222.72612,68 c 2.25394,0 9.06895,2.618584 10.27464,3.947897 C 234.33667,73.420794 240.43462,76 242.58104,76 245,76 245,76 245,135 c 0,32.45 -0.38026,59 -0.84501,59 -0.46476,0 -1.53653,-0.7875 -2.38172,-1.75 z M 78.405499,179.5 C 76.92185,178.125 75.137594,177 74.440488,177 72.977827,177 67,169.23215 67,167.33151 67,164.07745 61.955943,154.93705 59.557042,153.84404 58.150669,153.20325 57,152.3012 57,151.83948 57,151.37777 52.725,151 47.5,151 c -5.666667,0 -9.5,0.40351 -9.5,1 0,0.55 -1.029851,1 -2.288558,1 -2.878708,0 -8.990143,3.08562 -13.85555,6.99557 C 19.799654,161.648 17.647274,163 17.072827,163 c -0.574448,0 -2.235634,1.8 -3.691525,4 -1.455891,2.2 -2.812276,4 -3.014188,4 C 10.165201,171 10,135.225 10,91.5 V 12 H 127.5 245 v 28.622445 c 0,22.747168 -0.25659,28.423894 -1.25,27.655171 -0.6875,-0.532 -3.5,-1.566287 -6.25,-2.298414 -2.75,-0.732128 -5.225,-1.589455 -5.5,-1.905171 C 230.96629,62.887265 223.85524,60 221.96607,60 218.5852,60 219.26696,53.076481 223,49.5 c 1.65,-1.5808 3,-3.464991 3,-4.187091 C 226,44.590809 226.56829,44 227.26287,44 c 0.69458,0 1.70708,-0.975692 2.25,-2.168205 0.98133,-2.155458 2.39074,-3.194192 5.73713,-4.228259 1.36314,-0.421222 1.75,-1.653029 1.75,-5.572151 0,-7.219001 -5.48892,-7.466113 -12.17012,-0.547902 -2.38143,2.465916 -4.6856,4.490916 -5.12037,4.5 -1.5899,0.03322 -6.70951,4.432088 -6.70951,5.764941 0,0.974286 -1.08764,1.282289 -3.75,1.061941 C 205.5,42.5 205.5,42.5 205.5,30.5 c 0,-11.683096 -0.0594,-12.008439 -2.25,-12.319551 -1.81072,-0.257163 -2.25,0.161228 -2.25,2.143011 0,1.354409 -0.675,2.721584 -1.5,3.038166 -1.72227,0.660899 -2.01037,4.728001 -0.44575,6.292627 3.46178,3.461778 0.51251,12.819365 -4.25397,13.497213 -2.58485,0.367595 -5.1758,0.962586 -5.75767,1.322202 -1.07324,0.663295 -3.70337,-1.460685 -5.53626,-4.47084 C 176.92029,29.186519 170.77541,23 166.61798,23 c -4.07349,0 -3.54508,4.493407 1.13202,9.626291 2.0625,2.26349 5.4375,5.967753 7.5,8.231697 2.0625,2.263944 3.75,4.572056 3.75,5.129137 C 179,46.544206 179.675,47 180.5,47 c 1.71812,0 2.14015,5.486332 0.5,6.5 -0.55,0.339919 -1,1.684096 -1,2.987061 0,2.146279 -0.54064,2.426675 -5.75,2.982149 -3.1625,0.337217 -9.30905,1.044597 -13.659,1.571956 -15.42462,1.869976 -19.02995,1.459708 -20.1342,-2.291166 -1.12358,-3.816496 -6.88753,-5.17641 -9.76099,-2.30295 -0.85413,0.854122 -1.9226,1.567921 -2.37438,1.586219 -1.56299,0.0633 -4.91162,3.48743 -8.28006,8.466731 -1.86034,2.75 -4.88069,6.688796 -6.7119,8.752881 C 111.49826,77.316965 110,79.454465 110,80.002881 110,80.554915 107.32178,81 104,81 99.294861,81 98,80.671546 98,79.478043 98,78.640966 96.65,74.978724 95,71.339727 93.35,67.70073 92,64.148111 92,63.445018 92,62.741925 91.6625,62.016667 91.25,61.833333 90.8375,61.65 89.239599,59.8125 87.699109,57.75 84.898217,54 84.898217,54 76.949109,54 66.088693,54 64.519322,73.649756 74.576498,83.706933 c 5.576499,5.576498 5.576499,5.576498 4,12.557448 C 74.090388,116.12949 78.187403,124 93.014351,124 95.856159,124 97,124.4223 97,125.47149 c 0,2.15329 4.60726,12.21377 6.96751,15.21434 3.16904,4.02878 2.06954,8.7451 -3.41949,14.66785 C 97.572581,158.56424 92,166.56636 92,167.62849 92,168.96005 82.915719,182 81.988088,182 c -0.486774,0 -2.098939,-1.125 -3.582589,-2.5 z m 29.447271,0.71503 C 96.81152,179.88888 96.218815,178.99488 102.40632,172 c 1.7028,-1.925 4.57923,-5.82251 6.39206,-8.66113 4.64452,-7.27262 6.20162,-7.58531 6.20162,-1.24538 0,2.76689 0.71216,7.20802 1.58258,9.86918 2.71475,8.29986 2.41669,8.58162 -8.72981,8.25236 z m 19.83901,-5.55022 c -3.86064,-15.26686 -3.48636,-15.61053 12.80822,-11.76067 4.4,1.03957 9.88659,2.1966 12.19243,2.57117 10.48194,1.70273 7.0048,11.77226 -4.62325,13.38857 -18.97353,2.63732 -18.63077,2.70796 -20.3774,-4.19907 z"
         id="path2312" />
      <path
         style="fill:#078cbd"
         d="M 9.2440023,92.25 9,11 127.25,11.245846 245.5,11.491692 127.75591,11.74996 10.011827,12.008227 9.7499159,92.754114 9.4880045,173.5 Z"
         id="path2310" />
      <path
         style="fill:#24c152"
         d="m 10.231712,218.75 0.231713,-25.25 0.285775,24.75824 0.285775,24.75824 116.482565,-0.25824 c 64.06541,-0.14203 116.48254,0.0793 116.48251,0.49176 C 244.00002,243.6625 191.35,244 127,244 H 10 Z"
         id="path2308" />
      <path
         style="fill:#21b04b"
         d="m 244.22862,243.5 c -0.15116,-0.66145 -39.66907,-0.91257 -116.72857,-0.74175 L 11,243.01649 V 218.50825 C 11,203.61158 10.625593,194 10.045313,194 c -0.5250778,0 -1.2443109,-1.54383 -1.5982959,-3.43073 -0.3539849,-1.8869 -1.2743758,-3.67278 -2.045313,-3.96862 -2.0447482,-0.78464 -1.7136013,-6.00841 0.5083593,-8.01926 1.0505349,-0.95072 2.2014471,-2.88955 2.5575827,-4.3085 0.8575539,-3.41677 6.3080969,-11.2703 7.8303949,-11.2826 0.661077,-0.005 3.177392,-1.58002 5.591811,-3.4993 15.203834,-12.08589 37.379019,-10.23403 42.487597,3.54817 C 68.227685,170.72868 73.203577,178 75.615414,178 c 0.796046,0 1.699804,0.65787 2.008352,1.46193 0.523191,1.36342 4.064914,3.13975 5.523674,2.77038 1.52273,-0.38557 -0.711755,4.42374 -2.8292,6.08932 C 79.043208,189.32457 78,190.83524 78,191.67866 c 0,0.84342 -1.064088,2.37051 -2.36464,3.39353 -1.300553,1.02301 -2.930147,3.22527 -3.621321,4.89392 C 71.322865,201.63475 70.361953,203 69.87868,203 c -1.96114,0 -0.920268,6.85202 1.140215,7.506 C 76.702251,212.30982 83,208.97606 83,204.1637 c 0,-1.11146 0.615631,-2.63647 1.368068,-3.38891 0.752438,-0.75244 1.682762,-2.35958 2.067388,-3.57143 C 86.820082,195.99151 87.498201,195 87.942388,195 c 0.444186,0 1.07408,-1.33234 1.399764,-2.96076 1.61398,-8.0699 6.995327,-11.12616 19.052578,-10.82064 L 119.5,181.5 120,197.33331 c 0.55382,17.53758 1.01102,18.68357 7.44113,18.65138 6.18011,-0.0309 9.43168,-8.85909 4.52801,-12.29375 -2.53213,-1.77357 -2.40524,-12.18535 0.16788,-13.77562 C 133.80496,188.88447 131.6711,184 129.55282,184 c -0.91365,0 -1.26739,-0.58025 -0.91445,-1.5 0.41509,-1.08169 2.1493,-1.50993 6.21862,-1.53562 3.10365,-0.0196 8.34301,-0.68756 11.64301,-1.48438 9.06279,-2.1883 11.22618,-1.09773 6.52,3.28674 -1.19838,1.11646 -1.81319,2.71087 -1.55742,4.03896 0.23242,1.20686 -0.0281,2.1943 -0.57901,2.1943 -0.55088,0 -0.75263,0.40285 -0.44833,0.89522 0.3043,0.49236 -0.14025,1.16134 -0.98789,1.48661 -0.84765,0.32527 -1.43895,1.15993 -1.31402,1.85479 0.50424,2.80459 -2.45719,9.77689 -4.04372,9.52039 C 142.79832,202.54823 142.5,203.53219 142.5,208 c 0,5.5 0,5.5 4,5.59054 3.94806,0.0894 7.5,-1.28525 7.5,-2.90252 0,-0.45698 0.66311,-1.49399 1.47357,-2.30445 0.81047,-0.81047 1.97947,-3.36582 2.59778,-5.67857 0.61831,-2.31275 1.52629,-4.6964 2.01775,-5.29701 0.49145,-0.6006 0.63927,-1.34629 0.32849,-1.65707 -0.31079,-0.31078 0.23676,-2.06938 1.21676,-3.90799 0.98,-1.83861 1.84064,-3.56793 1.91253,-3.84293 1.19259,-4.56193 2.31795,-5.40585 3.00035,-2.25 0.55294,2.55712 1.20911,3.25 3.07777,3.25 1.42606,0 2.375,0.58907 2.375,1.47432 0,0.81088 1.2375,2.11893 2.75,2.90679 2.82057,1.46923 9.31978,8.21577 8.60406,8.93149 -0.21938,0.21939 1.18313,1.4763 3.1167,2.79314 1.93356,1.31684 3.51865,2.95676 3.52241,3.64426 0.004,0.6875 0.40694,1.25 0.89597,1.25 0.48902,0 3.52078,2.72066 6.73723,6.04591 8.27692,8.55686 13.65354,8.58384 13.64543,0.0685 -0.004,-3.93905 -0.44385,-5.63115 -1.63847,-6.29969 C 208.735,209.31195 208,208.24798 208,207.45031 208,206.65264 207.15065,206 206.11256,206 c -1.03809,0 -2.95059,-1.3736 -4.25,-3.05244 -4.29803,-5.55308 -6.55978,-7.74252 -8.36454,-8.09711 -0.98101,-0.19275 -2.28189,-1.21386 -2.89084,-2.26914 -0.60895,-1.05529 -2.93019,-3.75529 -5.15831,-6 -2.22812,-2.24472 -4.826,-5.31881 -5.77305,-6.83131 -0.94706,-1.5125 -2.13226,-2.75 -2.63377,-2.75 -6.7892,0 -6.95096,-4.56212 -0.18481,-5.21226 2.60505,-0.25031 7.41538,-1.73986 10.68961,-3.3101 5.53511,-2.65451 6.98035,-2.88313 20.58103,-3.25558 16.50161,-0.45191 17.25144,-0.15836 20.581,8.05711 0.8424,2.07855 2.41561,4.25227 3.49603,4.83049 1.08042,0.57823 2.62829,2.4776 3.43971,4.22083 3.4255,7.35928 9.27739,14.66951 11.74304,14.66951 2.97035,0 4.61234,1.28409 4.61234,3.60699 0,2.06554 -0.47617,2.39301 -3.47971,2.39301 -3.47971,0 -3.47971,0 -3.77143,20.75 -0.16044,11.4125 -0.39455,20.3 -0.52024,19.75 z"
         id="path2306" />
      <path
         style="fill:#1b953e"
         d="m 126.74451,252.25004 125.24451,-0.25779 0.26105,-87.24612 L 252.51113,77.5 252.75556,165.25 253,253 127.25,252.75391 1.5,252.50782 Z M 9,219.5 C 9,198.35336 8.7618518,194 7.6050355,194 6.7128146,194 6.0754838,192.58872 5.8366315,190.08412 5.6312398,187.93038 5.8089738,186.38194 6.231596,186.64313 6.6542182,186.90433 7,188.39333 7,189.95203 c 0,1.59661 0.6549302,3.08531 1.5,3.4096 1.2780442,0.49043 1.5,4.2789 1.5,25.60287 v 25.02727 l 117.75,0.25827 117.75,0.25827 -118.25,0.24584 L 9,245 Z M 252,38.003875 V 4.0077505 L 126.75,3.749965 1.5,3.4921795 127.25,3.2460897 253,3 V 37.5 C 253,56.475 252.775,72 252.5,72 252.225,72 252,56.701744 252,38.003875 Z"
         id="path2304" />
      <path
         style="fill:#040606"
         d="M 2,128 V 4 h 125 125 v 33.878059 c 0,33.87806 0,33.87806 -3.5,32.291655 C 245,68.583309 245,68.583309 245,39.791655 V 11 H 127 9 V 93.185549 C 9,175.3711 9,175.3711 6.8914757,177.61552 4.3398792,180.33157 4.9321958,194 7.6014914,194 8.7629405,194 9,198.32247 9,219.5 V 245 h 117.97971 117.97971 l 0.27029,-20.75 C 245.5,203.5 245.5,203.5 248.75,203.18664 c 3.25,-0.31336 3.25,-0.31336 3.25,24.25 V 252 H 127 2 Z m 192.41929,84.30027 c -4.90561,-5.39015 -9.29463,-9.96288 -9.75338,-10.16163 -0.45875,-0.19875 -4.01505,-3.68625 -7.9029,-7.75 C 172.87516,190.32489 169.14049,187 168.46373,187 c -0.67676,0 -1.51755,-1.0125 -1.86843,-2.25 -0.95737,-3.37652 -6.83741,8.71287 -9.04684,18.60032 -1.53352,6.86274 -8.35167,11.97164 -13.09352,9.8111 -3.31343,-1.5097 -3.39623,-10.11837 -0.0979,-10.18425 0.62865,-0.0126 2.88346,-4.17506 5.01067,-9.25 2.12722,-5.07494 5.16472,-12.09019 6.75,-15.58944 4.58053,-10.11074 4.05602,-11.29713 -5.78208,-13.07851 -3.39043,-0.6139 -8.34043,-1.73559 -11,-2.49264 -13.61127,-3.87445 -17.77393,-0.25151 -12.19939,10.61768 0.47509,0.92634 0.86381,3.94972 0.86381,6.71861 0,4.02893 0.29493,4.92119 1.47676,4.46768 2.01221,-0.77216 4.49802,4.40897 2.66026,5.54477 -2.49219,1.54026 -2.70787,11.99654 -0.28249,13.69534 5.60735,3.92755 1.88756,11.6624 -5.38766,11.20299 C 121.5,214.5 121.5,214.5 120.39068,197.5 c -0.70606,-10.82023 -1.75934,-18.99934 -2.89748,-22.5 -0.98348,-3.025 -1.98519,-8.3125 -2.226,-11.75 -0.54627,-7.7976 -1.73566,-7.89653 -6.20545,-0.51615 -1.89103,3.12242 -4.86176,7.27215 -6.60161,9.22164 -1.73985,1.94948 -3.463708,4.78201 -3.830801,6.29451 -0.367094,1.5125 -1.33387,2.75 -2.148391,2.75 C 95.666427,181 95,181.6199 95,182.37756 c 0,0.75765 -0.711721,1.96823 -1.581601,2.69016 -0.869881,0.72194 -2.884811,3.89426 -4.477622,7.0496 -1.592812,3.15534 -3.343862,6.01377 -3.891224,6.35205 -0.547362,0.33829 -1.493514,2.46566 -2.102561,4.72749 -2.104239,7.81454 -12.003539,11.19695 -12.781361,4.36715 -0.390156,-3.42582 3.16244,-11.12744 5.930171,-12.85591 C 77.143111,194.05404 78,193.03059 78,192.43377 c 0,-0.59683 1.125,-2.14202 2.5,-3.43377 1.375,-1.29175 2.5,-2.95129 2.5,-3.68788 0,-1.4031 0.610906,-2.84837 3.302133,-7.81212 4.61471,-8.51146 7.587779,-13.20248 11.380882,-17.95719 C 106.15823,148.91904 107.30484,145.4258 103.93361,140.5 101.14753,136.42919 97,127.15375 97,124.99385 c 0,-1.4818 -1.320767,-1.86732 -8.424833,-2.45908 -11.658496,-0.97115 -14.19246,-7.69971 -9.959199,-26.445167 1.615969,-7.155728 1.615969,-7.155728 -3.012647,-11.372666 C 64.788202,74.863735 65.7398,54.22889 77.011099,54.19011 c 8.0111,-0.02756 8.0111,-0.02756 10.75,3.641164 1.506396,2.017799 3.076401,3.818726 3.488901,4.002059 0.4125,0.183334 0.760083,1.083334 0.772406,2 C 92.03473,64.75 93.374647,68.2 95,71.5 c 1.625353,3.3 2.96527,6.7875 2.977594,7.75 C 98.016475,82.286744 109.03275,81.741293 111,78.605219 112.71373,75.873292 119.36644,67.283975 124.05491,61.75 125.8023,59.6875 127.85478,58 128.61599,58 129.37719,58 130,57.55 130,57 c 0,-1.755246 9.70467,-1.21199 10.39301,0.581787 3.78152,9.854492 -4.54142,31.108829 -13.26621,33.877969 -1.52578,0.484263 -2.4764,2.771517 -4.29325,10.329884 -3.05385,12.70446 -7.12694,18.83037 -14.33355,21.55757 -0.55,0.20814 -0.0401,1.45267 1.13303,2.76561 1.17316,1.31295 2.85197,3.81053 3.73068,5.55017 1.31692,2.60719 2.48845,3.35404 6.66695,4.25016 2.7881,0.59795 6.37445,1.7621 7.96965,2.58701 1.93854,1.00246 5.84238,1.49984 11.77189,1.49984 18.2275,0 29.2278,8.28175 29.2278,22.00461 0,10.64205 1.03169,13.08537 6.47193,15.32733 2.44492,1.00757 4.71749,2.68951 5.05016,3.73764 0.67784,2.13571 9.8079,11.59098 22.28678,23.08062 8.30886,7.65021 8.30886,7.65021 8,12.5 -0.57885,9.08907 -5.29875,7.83637 -16.38958,-4.34993 z M 128.74116,77.264274 C 134.2407,71.215837 135.3922,68 132.05845,68 129.90497,68 121,78.809899 121,81.424044 c 0,2.952212 2.49233,1.612941 7.74116,-4.15977 z M 88.09803,77.199343 C 87.494113,76.998038 87,76.221555 87,75.473827 87,72.016649 79.71591,62 77.201856,62 c -2.904504,0 -1.001109,10.934373 2.394659,13.756526 6.709105,5.5758 8.861622,6.512842 9.251515,4.027404 0.191416,-1.220217 -0.146084,-2.383281 -0.75,-2.584587 z M 248,197.10534 c -2.5,-0.69531 -2.5,-0.69531 -2.75807,-59.59225 -0.27074,-61.786884 -0.34531,-60.67388 4.00807,-59.819587 2.66826,0.523612 4.66545,120.561077 2,120.206817 -0.4125,-0.0548 -1.875,-0.41257 -3.25,-0.79498 z"
         id="path2302" />
    </g>
  </g>
</svg>
