<?xml version="1.0" encoding="UTF-8"?>
<!DOCTYPE svg PUBLIC "-//W3C//DTD SVG 1.1//EN" "http://www.w3.org/Graphics/SVG/1.1/DTD/svg11.dtd">
<svg version="1.2" width="210mm" height="297mm" viewBox="0 0 21000 29700" preserveAspectRatio="xMidYMid" fill-rule="evenodd" stroke-width="28.222" stroke-linejoin="round" xmlns="http://www.w3.org/2000/svg" xmlns:ooo="http://xml.openoffice.org/svg/export" xmlns:xlink="http://www.w3.org/1999/xlink" xmlns:presentation="http://sun.com/xmlns/staroffice/presentation" xmlns:smil="http://www.w3.org/2001/SMIL20/" xmlns:anim="urn:oasis:names:tc:opendocument:xmlns:animation:1.0" xml:space="preserve">
 <defs class="ClipPathGroup">
  <clipPath id="presentation_clip_path" clipPathUnits="userSpaceOnUse">
   <rect x="0" y="0" width="21000" height="29700"/>
  </clipPath>
  <clipPath id="presentation_clip_path_shrink" clipPathUnits="userSpaceOnUse">
   <rect x="21" y="29" width="20958" height="29641"/>
  </clipPath>
 </defs>
 <defs class="TextShapeIndex">
  <g ooo:slide="id1" ooo:id-list="id3 id4 id5 id6 id7 id8 id9 id10"/>
 </defs>
 <defs class="EmbeddedBulletChars">
  <g id="bullet-char-template-57356" transform="scale(0.00048828125,-0.00048828125)">
   <path d="M 580,1141 L 1163,571 580,0 -4,571 580,1141 Z"/>
  </g>
  <g id="bullet-char-template-57354" transform="scale(0.00048828125,-0.00048828125)">
   <path d="M 8,1128 L 1137,1128 1137,0 8,0 8,1128 Z"/>
  </g>
  <g id="bullet-char-template-10146" transform="scale(0.00048828125,-0.00048828125)">
   <path d="M 174,0 L 602,739 174,1481 1456,739 174,0 Z M 1358,739 L 309,1346 659,739 1358,739 Z"/>
  </g>
  <g id="bullet-char-template-10132" transform="scale(0.00048828125,-0.00048828125)">
   <path d="M 2015,739 L 1276,0 717,0 1260,543 174,543 174,936 1260,936 717,1481 1274,1481 2015,739 Z"/>
  </g>
  <g id="bullet-char-template-10007" transform="scale(0.00048828125,-0.00048828125)">
   <path d="M 0,-2 C -7,14 -16,27 -25,37 L 356,567 C 262,823 215,952 215,954 215,979 228,992 255,992 264,992 276,990 289,987 310,991 331,999 354,1012 L 381,999 492,748 772,1049 836,1024 860,1049 C 881,1039 901,1025 922,1006 886,937 835,863 770,784 769,783 710,716 594,584 L 774,223 C 774,196 753,168 711,139 L 727,119 C 717,90 699,76 672,76 641,76 570,178 457,381 L 164,-76 C 142,-110 111,-127 72,-127 30,-127 9,-110 8,-76 1,-67 -2,-52 -2,-32 -2,-23 -1,-13 0,-2 Z"/>
  </g>
  <g id="bullet-char-template-10004" transform="scale(0.00048828125,-0.00048828125)">
   <path d="M 285,-33 C 182,-33 111,30 74,156 52,228 41,333 41,471 41,549 55,616 82,672 116,743 169,778 240,778 293,778 328,747 346,684 L 369,508 C 377,444 397,411 428,410 L 1163,1116 C 1174,1127 1196,1133 1229,1133 1271,1133 1292,1118 1292,1087 L 1292,965 C 1292,929 1282,901 1262,881 L 442,47 C 390,-6 338,-33 285,-33 Z"/>
  </g>
  <g id="bullet-char-template-9679" transform="scale(0.00048828125,-0.00048828125)">
   <path d="M 813,0 C 632,0 489,54 383,161 276,268 223,411 223,592 223,773 276,916 383,1023 489,1130 632,1184 813,1184 992,1184 1136,1130 1245,1023 1353,916 1407,772 1407,592 1407,412 1353,268 1245,161 1136,54 992,0 813,0 Z"/>
  </g>
  <g id="bullet-char-template-8226" transform="scale(0.00048828125,-0.00048828125)">
   <path d="M 346,457 C 273,457 209,483 155,535 101,586 74,649 74,723 74,796 101,859 155,911 209,963 273,989 346,989 419,989 480,963 531,910 582,859 608,796 608,723 608,648 583,586 532,535 482,483 420,457 346,457 Z"/>
  </g>
  <g id="bullet-char-template-8211" transform="scale(0.00048828125,-0.00048828125)">
   <path d="M -4,459 L 1135,459 1135,606 -4,606 -4,459 Z"/>
  </g>
  <g id="bullet-char-template-61548" transform="scale(0.00048828125,-0.00048828125)">
   <path d="M 173,740 C 173,903 231,1043 346,1159 462,1274 601,1332 765,1332 928,1332 1067,1274 1183,1159 1299,1043 1357,903 1357,740 1357,577 1299,437 1183,322 1067,206 928,148 765,148 601,148 462,206 346,322 231,437 173,577 173,740 Z"/>
  </g>
 </defs>
 <g>
  <g id="id2" class="Master_Slide">
   <g id="bg-id2" class="Background"/>
   <g id="bo-id2" class="BackgroundObjects"/>
  </g>
 </g>
 <g class="SlideGroup">
  <g>
   <g id="container-id1">
    <g id="id1" class="Slide" clip-path="url(#presentation_clip_path)">
     <g class="Page">
      <g class="com.sun.star.drawing.CustomShape">
       <g id="id3">
        <rect class="BoundingBox" stroke="none" fill="none" x="1034" y="1534" width="15732" height="22982"/>
        <path fill="rgb(255,255,255)" stroke="none" d="M 16500,24250 L 1299,24250 1299,4606 3200,1799 16500,1799 16500,24250 Z"/>
        <path fill="none" stroke="rgb(52,101,164)" stroke-width="529" stroke-linejoin="round" d="M 16500,24250 L 1299,24250 1299,4606 3200,1799 16500,1799 16500,24250 Z"/>
        <path fill="rgb(204,204,204)" stroke="none" d="M 3200,1799 L 2707,4606 C 2232,4205 2250,4430 1299,4606 L 3200,1799 Z"/>
        <path fill="none" stroke="rgb(52,101,164)" stroke-width="529" stroke-linejoin="round" d="M 3200,1799 L 2707,4606 C 2232,4205 2250,4430 1299,4606 L 3200,1799 Z"/>
       </g>
      </g>
      <g class="Group">
       <g class="com.sun.star.drawing.CustomShape">
        <g id="id4">
         <rect class="BoundingBox" stroke="none" fill="none" x="12594" y="20344" width="7464" height="7464"/>
         <path fill="rgb(255,109,109)" stroke="none" d="M 19951,24076 C 19951,24712 19783,25337 19465,25888 19147,26439 18689,26897 18138,27215 17587,27533 16962,27701 16326,27701 15689,27701 15064,27533 14513,27215 13962,26897 13504,26439 13186,25888 12868,25337 12700,24712 12700,24076 12700,23439 12868,22814 13186,22263 13504,21712 13962,21254 14513,20936 15064,20618 15689,20450 16325,20450 16962,20450 17587,20618 18138,20936 18689,21254 19147,21712 19465,22263 19783,22814 19951,23439 19951,24076 L 19951,24076 Z"/>
         <path fill="none" stroke="rgb(255,0,0)" stroke-width="212" stroke-linejoin="round" d="M 19951,24076 C 19951,24712 19783,25337 19465,25888 19147,26439 18689,26897 18138,27215 17587,27533 16962,27701 16326,27701 15689,27701 15064,27533 14513,27215 13962,26897 13504,26439 13186,25888 12868,25337 12700,24712 12700,24076 12700,23439 12868,22814 13186,22263 13504,21712 13962,21254 14513,20936 15064,20618 15689,20450 16325,20450 16962,20450 17587,20618 18138,20936 18689,21254 19147,21712 19465,22263 19783,22814 19951,23439 19951,24076 L 19951,24076 Z"/>
        </g>
       </g>
       <g class="com.sun.star.drawing.CustomShape">
        <g id="id5">
         <rect class="BoundingBox" stroke="none" fill="none" x="13986" y="21736" width="4678" height="4679"/>
         <path fill="rgb(255,255,255)" stroke="none" d="M 14092,22556 L 14805,21843 16324,23362 17844,21843 18556,22555 17037,24075 18556,25595 17844,26307 16324,24788 14805,26307 14092,25594 15611,24075 14092,22556 14092,22556 Z"/>
         <path fill="none" stroke="rgb(0,0,0)" stroke-width="212" stroke-linejoin="round" d="M 14092,22556 L 14805,21843 16324,23362 17844,21843 18556,22555 17037,24075 18556,25595 17844,26307 16324,24788 14805,26307 14092,25594 15611,24075 14092,22556 14092,22556 Z"/>
        </g>
       </g>
      </g>
      <g class="com.sun.star.drawing.LineShape">
       <g id="id6">
        <rect class="BoundingBox" stroke="none" fill="none" x="4123" y="7373" width="10855" height="355"/>
        <path fill="none" stroke="rgb(0,0,0)" stroke-width="353" stroke-linejoin="round" d="M 4300,7550 L 7124,7550"/>
        <path fill="none" stroke="rgb(0,0,0)" stroke-width="353" stroke-linejoin="round" d="M 8183,7550 L 11007,7550"/>
        <path fill="none" stroke="rgb(0,0,0)" stroke-width="353" stroke-linejoin="round" d="M 12066,7550 L 14800,7550"/>
       </g>
      </g>
      <g class="com.sun.star.drawing.LineShape">
       <g id="id7">
        <rect class="BoundingBox" stroke="none" fill="none" x="4123" y="10373" width="10855" height="355"/>
        <path fill="none" stroke="rgb(0,0,0)" stroke-width="353" stroke-linejoin="round" d="M 4300,10550 L 7124,10550"/>
        <path fill="none" stroke="rgb(0,0,0)" stroke-width="353" stroke-linejoin="round" d="M 8183,10550 L 8536,10550"/>
        <path fill="none" stroke="rgb(0,0,0)" stroke-width="353" stroke-linejoin="round" d="M 9595,10550 L 9948,10550"/>
        <path fill="none" stroke="rgb(0,0,0)" stroke-width="353" stroke-linejoin="round" d="M 11007,10550 L 13831,10550"/>
       </g>
      </g>
      <g class="com.sun.star.drawing.LineShape">
       <g id="id8">
        <rect class="BoundingBox" stroke="none" fill="none" x="4123" y="13123" width="10855" height="355"/>
        <path fill="none" stroke="rgb(0,0,0)" stroke-width="353" stroke-linejoin="round" d="M 4300,13300 L 5712,13300"/>
        <path fill="none" stroke="rgb(0,0,0)" stroke-width="353" stroke-linejoin="round" d="M 6771,13300 L 8183,13300"/>
        <path fill="none" stroke="rgb(0,0,0)" stroke-width="353" stroke-linejoin="round" d="M 9242,13300 L 10654,13300"/>
        <path fill="none" stroke="rgb(0,0,0)" stroke-width="353" stroke-linejoin="round" d="M 11713,13300 L 13125,13300"/>
        <path fill="none" stroke="rgb(0,0,0)" stroke-width="353" stroke-linejoin="round" d="M 14184,13300 L 14800,13300"/>
       </g>
      </g>
      <g class="com.sun.star.drawing.LineShape">
       <g id="id9">
        <rect class="BoundingBox" stroke="none" fill="none" x="4123" y="15623" width="10855" height="355"/>
        <path fill="none" stroke="rgb(0,0,0)" stroke-width="353" stroke-linejoin="round" d="M 4300,15800 L 5712,15800"/>
        <path fill="none" stroke="rgb(0,0,0)" stroke-width="353" stroke-linejoin="round" d="M 6771,15800 L 7124,15800"/>
        <path fill="none" stroke="rgb(0,0,0)" stroke-width="353" stroke-linejoin="round" d="M 8183,15800 L 9595,15800"/>
        <path fill="none" stroke="rgb(0,0,0)" stroke-width="353" stroke-linejoin="round" d="M 10654,15800 L 11007,15800"/>
        <path fill="none" stroke="rgb(0,0,0)" stroke-width="353" stroke-linejoin="round" d="M 12066,15800 L 13478,15800"/>
        <path fill="none" stroke="rgb(0,0,0)" stroke-width="353" stroke-linejoin="round" d="M 14537,15800 L 14800,15800"/>
       </g>
      </g>
      <g class="com.sun.star.drawing.LineShape">
       <g id="id10">
        <rect class="BoundingBox" stroke="none" fill="none" x="4123" y="18373" width="10855" height="355"/>
        <path fill="none" stroke="rgb(0,0,0)" stroke-width="353" stroke-linejoin="round" d="M 4300,18550 L 7124,18550"/>
        <path fill="none" stroke="rgb(0,0,0)" stroke-width="353" stroke-linejoin="round" d="M 8183,18550 L 8536,18550"/>
        <path fill="none" stroke="rgb(0,0,0)" stroke-width="353" stroke-linejoin="round" d="M 9595,18550 L 12419,18550"/>
        <path fill="none" stroke="rgb(0,0,0)" stroke-width="353" stroke-linejoin="round" d="M 13478,18550 L 13831,18550"/>
       </g>
      </g>
     </g>
    </g>
   </g>
  </g>
 </g>
</svg>